<svg width="114" height="28" viewBox="0 0 114 28" fill="none" xmlns="http://www.w3.org/2000/svg">
<rect x="0.000610352" y="12.9995" width="32" height="1.54334" rx="0.771672" fill="#E3B873"/>
<rect x="82.0006" y="12.9995" width="32" height="1.54334" rx="0.771672" fill="#E3B873"/>
<path d="M67.4056 21.1432C66.8241 20.734 66.1529 20.5141 65.475 20.4783C62.92 18.8051 61.2463 17.5493 60.2692 16.5721L57.2675 13.5705L59.089 11.5315C59.4342 11.7264 59.805 11.8548 60.1759 11.9078C60.4557 11.9544 60.6423 11.9544 60.8289 11.9544C61.2021 11.9544 61.2953 11.9544 61.6685 12.2809C61.4819 12.4208 61.3886 12.654 61.3886 12.8872C61.3886 13.1204 61.4819 13.4003 61.6685 13.5869L63.301 15.2194C63.5342 15.4993 63.9073 15.6392 64.2805 15.6392C64.6537 15.6392 65.0268 15.4993 65.26 15.1728L68.5717 11.8611C68.8516 11.6279 68.9915 11.2548 68.9915 10.8816C68.9915 10.5084 68.8516 10.1819 68.5717 9.90208L66.9392 8.26955C66.7526 8.08299 66.5194 7.98969 66.2861 7.98969C66.0529 7.98969 65.8197 8.12962 65.6331 8.26955C65.26 7.94306 65.26 7.84976 65.26 7.47659C65.26 7.29004 65.26 7.0568 65.1667 6.77694C65.0734 6.12392 64.7469 5.47095 64.2338 4.95786L62.5546 3.2787C61.5751 2.29919 61.1087 1.83278 59.8493 1.27306C57.144 0.0136909 54.3921 0.246925 50.3807 2.06601C50.1475 2.15932 50.0542 2.34587 50.1009 2.57911C50.1475 2.81234 50.3341 2.95227 50.5673 2.95227H51.1736C53.2259 2.95227 54.2987 2.95227 56.1645 4.81798C56.9814 5.63493 57.005 6.88758 56.273 7.8092C56.1744 7.82407 56.0993 7.86834 56.0245 7.94306L53.9526 10.2556L52.3864 8.68939C50.6649 6.96793 49.4541 5.33922 48.5222 3.52565C48.4733 2.60797 48.105 1.74937 47.4422 1.08656C46.6493 0.29366 45.5299 -0.0795044 44.4104 0.0138003C44.2705 0.0604253 44.1306 0.15373 44.0839 0.247035C43.9906 0.386965 43.9906 0.573519 44.0839 0.713449L45.3899 3.04563C45.1101 3.65197 44.4571 4.02514 43.8041 3.97851L42.4514 1.73958C42.4048 1.59965 42.2182 1.50635 42.0783 1.50635C41.9383 1.45972 41.7984 1.55297 41.7051 1.6929C40.5856 3.37206 41.0054 5.61094 42.6846 6.777C43.2631 7.19023 43.9149 7.42002 44.575 7.46714C44.5823 7.47025 44.5893 7.47408 44.5969 7.47665C46.416 8.40953 48.0485 9.62222 49.7743 11.3481L51.4802 13.0151L41.5652 24.0817C41.192 24.4549 41.0055 24.9679 41.0055 25.481C41.0055 25.9941 41.192 26.4605 41.5652 26.8337L42.2182 27.4867C42.5914 27.8132 43.0578 27.9998 43.5242 27.9998C43.9906 27.9998 44.5037 27.8133 44.8769 27.4401L54.7806 16.3543L57.6571 19.2309C58.6357 20.2094 59.8937 21.933 61.5705 24.4478C61.6306 25.3455 61.998 26.1837 62.648 26.8337C63.3476 27.5333 64.2805 27.9065 65.26 27.9065C65.3999 27.9065 65.5399 27.9065 65.6332 27.9065C65.7731 27.9065 65.913 27.8132 66.0063 27.6733C66.0996 27.5333 66.0996 27.3468 66.0063 27.2069L64.6537 24.9214C64.9802 24.315 65.5866 23.9418 66.2862 23.9885L67.5922 26.2273C67.6388 26.3673 67.8254 26.4606 67.9654 26.4606C68.1519 26.414 68.2918 26.3673 68.3851 26.2273C69.5045 24.5481 69.0381 22.3093 67.4056 21.1432ZM56.7709 4.07176C55.2783 2.62584 54.1589 2.15937 52.8995 2.01944C55.5582 1.17986 57.5172 1.22649 59.4762 2.11275C60.5957 2.57916 60.9688 2.95232 61.9483 3.93183L63.6275 5.61099C64.0006 5.98415 64.2338 6.45057 64.2805 6.91698C64.3271 7.15022 64.3271 7.33677 64.3271 7.4767C64.3271 7.9898 64.3738 8.36291 64.9335 8.92262C65.12 9.10918 65.3999 9.20248 65.6331 9.20248C65.913 9.20248 66.1462 9.10918 66.2861 8.92262L67.9187 10.5552C68.012 10.6485 68.0586 10.7417 68.0586 10.8816C68.0586 11.0216 68.012 11.1149 67.9187 11.2081L64.607 14.5198C64.4204 14.7064 64.1406 14.7064 63.954 14.5198L62.3214 12.8873C62.508 12.7474 62.6013 12.5141 62.5547 12.2343C62.5547 12.001 62.4614 11.7212 62.2748 11.5346C61.7151 10.9749 61.3419 10.9283 60.8289 10.9283C60.689 10.9283 60.5024 10.9283 60.2692 10.8816C59.7561 10.835 59.3363 10.6018 58.9632 10.2286L56.9575 8.22298C57.9836 6.96366 57.8904 5.1912 56.7709 4.07176ZM42.1249 2.95233L43.1044 4.63148C43.1977 4.77141 43.3377 4.86472 43.4776 4.86472H43.7108C44.7837 4.91134 45.7632 4.35162 46.2296 3.41879L46.3229 3.18556C46.4162 3.04563 46.4162 2.9057 46.3229 2.76577L45.2967 0.993309C45.8564 1.08661 46.3695 1.36647 46.7893 1.78626C47.2702 2.30723 47.5781 2.9661 47.5963 3.67384C47.5873 3.70975 47.5822 3.74839 47.5822 3.79196C47.5822 4.00797 47.5561 4.21869 47.5079 4.42181C47.3319 5.09719 46.91 5.68604 46.3228 6.07751C45.3899 6.68386 44.1306 6.68386 43.1977 6.03089C42.2182 5.33113 41.7984 4.07176 42.1249 2.95233ZM50.4274 10.6951C49.0281 9.24916 47.6288 8.12973 46.1362 7.24347C46.3694 7.15016 46.6493 7.01023 46.8825 6.8703C47.5821 6.40389 48.0485 5.79749 48.3284 5.05122C49.2146 6.54382 50.3341 7.94312 51.7333 9.34241L53.3354 10.9445L52.0791 12.3468L50.4274 10.6951ZM44.2239 26.7404C43.8507 27.1135 43.2444 27.1602 42.8712 26.787L42.2182 26.1807C42.0316 25.9941 41.9383 25.7609 41.9383 25.5276C41.9383 25.2478 42.0316 25.0145 42.2648 24.7814L42.529 24.4858L43.1977 25.1545C43.291 25.2478 43.3842 25.2945 43.5242 25.2945C43.6641 25.2945 43.7574 25.2478 43.8507 25.1545C44.0372 24.968 44.0372 24.6881 43.8507 24.5015L43.1453 23.7962L43.7617 23.1065L44.5037 23.8485C44.597 23.9418 44.6902 23.9884 44.8302 23.9884C44.9701 23.9884 45.0634 23.9418 45.1567 23.8485C45.3432 23.6619 45.3432 23.3821 45.1567 23.1955L44.3782 22.4169L56.3757 8.9939L58.3348 10.9529L56.4099 13.1065C56.3549 13.1298 56.3063 13.1653 56.2578 13.2138L54.3921 15.3128C54.3388 15.3661 54.3013 15.4271 54.2785 15.4912L44.2239 26.7404ZM55.4188 15.6399L56.6953 14.211L59.7094 17.2252C60.549 18.1114 61.9949 19.2308 64.0938 20.6301C63.814 20.7234 63.5341 20.8633 63.2543 21.0499C62.6756 21.4116 62.2657 21.9137 61.9801 22.4689C61.9759 22.4768 61.972 22.4849 61.9679 22.4929C61.951 22.5263 61.9344 22.5598 61.9184 22.5936C61.8954 22.6414 61.8735 22.6898 61.8526 22.7387C61.8382 22.7717 61.824 22.8048 61.8105 22.8381C61.8086 22.8429 61.8067 22.8477 61.8048 22.8525C61.7901 22.889 61.7755 22.9255 61.7617 22.9623C61.4968 22.5737 61.2419 22.207 60.9967 21.8615L61.6218 21.2365C61.8083 21.0499 61.8083 20.7701 61.6218 20.5835C61.4352 20.3969 61.1554 20.3969 60.9688 20.5835L60.4488 21.1035C60.255 20.8404 60.0677 20.5923 59.8872 20.3591L60.3158 19.9305C60.5023 19.7439 60.5023 19.464 60.3158 19.2774C60.1292 19.0909 59.8494 19.0909 59.6628 19.2774L59.3067 19.6335C58.9639 19.2203 58.6477 18.8687 58.3568 18.5778L55.4188 15.6399ZM67.9186 24.9679L66.9391 23.2888C66.8458 23.1488 66.7059 23.0555 66.566 23.0555H66.3327C65.2599 22.9622 64.2804 23.5686 63.814 24.5015L63.7207 24.7347C63.6274 24.8746 63.6274 25.0145 63.7207 25.1545L64.7468 26.9269C64.1871 26.8336 63.674 26.5538 63.2542 26.134C62.7824 25.6229 62.4775 24.979 62.4488 24.2866C62.4568 24.2525 62.4613 24.2159 62.4613 24.175C62.4613 23.5841 62.6488 23.0309 62.9758 22.5623C63.1766 22.2827 63.4279 22.038 63.7206 21.8428C64.187 21.5164 64.7001 21.3764 65.2599 21.3764C65.8196 21.3764 66.3793 21.563 66.8457 21.8895C67.8254 22.5891 68.2452 23.8485 67.9186 24.9679Z" fill="#E3B873"/>
</svg>
